<svg xmlns="http://www.w3.org/2000/svg" viewBox="0 0 200 80" fill="none">
  <!-- 18-column periodic table, rows 1-4. Cell: 10x13, gap: 1, stride: 11x14 -->
  <!-- x = 1 + (group-1)*11, y = 3 + (period-1)*14 -->

  <!-- Row 1: H (g1), He (g18) -->
  <rect x="1" y="3" width="10" height="13" rx="1" stroke="currentColor" stroke-width="0.8" fill="rgba(255,255,255,0.1)"/>
  <text x="6" y="12" text-anchor="middle" font-family="Arial" font-weight="bold" font-size="6" fill="currentColor">H</text>
  <rect x="188" y="3" width="10" height="13" rx="1" stroke="currentColor" stroke-width="0.8" fill="rgba(255,255,255,0.1)"/>
  <text x="193" y="12" text-anchor="middle" font-family="Arial" font-weight="bold" font-size="5" fill="currentColor">He</text>

  <!-- Row 2: Li(1), Be(2), B(13), C(14), N(15), O(16), F(17), Ne(18) -->
  <rect x="1" y="17" width="10" height="13" rx="1" stroke="currentColor" stroke-width="0.8" fill="rgba(255,255,255,0.1)"/>
  <text x="6" y="26" text-anchor="middle" font-family="Arial" font-weight="bold" font-size="5" fill="currentColor">Li</text>
  <rect x="12" y="17" width="10" height="13" rx="1" stroke="currentColor" stroke-width="0.8" fill="rgba(255,255,255,0.1)"/>
  <text x="17" y="26" text-anchor="middle" font-family="Arial" font-weight="bold" font-size="5" fill="currentColor">Be</text>
  <rect x="133" y="17" width="10" height="13" rx="1" stroke="currentColor" stroke-width="0.8" fill="rgba(255,255,255,0.1)"/>
  <text x="138" y="26" text-anchor="middle" font-family="Arial" font-weight="bold" font-size="6" fill="currentColor">B</text>
  <rect x="144" y="17" width="10" height="13" rx="1" stroke="currentColor" stroke-width="0.8" fill="rgba(255,255,255,0.1)"/>
  <text x="149" y="26" text-anchor="middle" font-family="Arial" font-weight="bold" font-size="6" fill="currentColor">C</text>
  <rect x="155" y="17" width="10" height="13" rx="1" stroke="currentColor" stroke-width="0.8" fill="rgba(255,255,255,0.1)"/>
  <text x="160" y="26" text-anchor="middle" font-family="Arial" font-weight="bold" font-size="6" fill="currentColor">N</text>
  <rect x="166" y="17" width="10" height="13" rx="1" stroke="currentColor" stroke-width="0.8" fill="rgba(255,255,255,0.1)"/>
  <text x="171" y="26" text-anchor="middle" font-family="Arial" font-weight="bold" font-size="6" fill="currentColor">O</text>
  <rect x="177" y="17" width="10" height="13" rx="1" stroke="currentColor" stroke-width="0.8" fill="rgba(255,255,255,0.1)"/>
  <text x="182" y="26" text-anchor="middle" font-family="Arial" font-weight="bold" font-size="6" fill="currentColor">F</text>
  <rect x="188" y="17" width="10" height="13" rx="1" stroke="currentColor" stroke-width="0.8" fill="rgba(255,255,255,0.1)"/>
  <text x="193" y="26" text-anchor="middle" font-family="Arial" font-weight="bold" font-size="5" fill="currentColor">Ne</text>

  <!-- Row 3: Na(1), Mg(2), Al(13), Si(14), P(15), S(16), Cl(17), Ar(18) -->
  <rect x="1" y="31" width="10" height="13" rx="1" stroke="currentColor" stroke-width="0.8" fill="rgba(255,255,255,0.1)"/>
  <text x="6" y="40" text-anchor="middle" font-family="Arial" font-weight="bold" font-size="5" fill="currentColor">Na</text>
  <rect x="12" y="31" width="10" height="13" rx="1" stroke="currentColor" stroke-width="0.8" fill="rgba(255,255,255,0.1)"/>
  <text x="17" y="40" text-anchor="middle" font-family="Arial" font-weight="bold" font-size="5" fill="currentColor">Mg</text>
  <rect x="133" y="31" width="10" height="13" rx="1" stroke="currentColor" stroke-width="0.8" fill="rgba(255,255,255,0.1)"/>
  <text x="138" y="40" text-anchor="middle" font-family="Arial" font-weight="bold" font-size="5" fill="currentColor">Al</text>
  <rect x="144" y="31" width="10" height="13" rx="1" stroke="currentColor" stroke-width="0.8" fill="rgba(255,255,255,0.1)"/>
  <text x="149" y="40" text-anchor="middle" font-family="Arial" font-weight="bold" font-size="5" fill="currentColor">Si</text>
  <rect x="155" y="31" width="10" height="13" rx="1" stroke="currentColor" stroke-width="0.8" fill="rgba(255,255,255,0.1)"/>
  <text x="160" y="40" text-anchor="middle" font-family="Arial" font-weight="bold" font-size="6" fill="currentColor">P</text>
  <rect x="166" y="31" width="10" height="13" rx="1" stroke="currentColor" stroke-width="0.8" fill="rgba(255,255,255,0.1)"/>
  <text x="171" y="40" text-anchor="middle" font-family="Arial" font-weight="bold" font-size="6" fill="currentColor">S</text>
  <rect x="177" y="31" width="10" height="13" rx="1" stroke="currentColor" stroke-width="0.8" fill="rgba(255,255,255,0.1)"/>
  <text x="182" y="40" text-anchor="middle" font-family="Arial" font-weight="bold" font-size="5" fill="currentColor">Cl</text>
  <rect x="188" y="31" width="10" height="13" rx="1" stroke="currentColor" stroke-width="0.8" fill="rgba(255,255,255,0.1)"/>
  <text x="193" y="40" text-anchor="middle" font-family="Arial" font-weight="bold" font-size="5" fill="currentColor">Ar</text>

  <!-- Row 4: K(1), Ca(2), Sc(3)..Zn(12), Ga(13)..Kr(18) - all 18 filled -->
  <rect x="1" y="45" width="10" height="13" rx="1" stroke="currentColor" stroke-width="0.8" fill="rgba(255,255,255,0.1)"/>
  <text x="6" y="54" text-anchor="middle" font-family="Arial" font-weight="bold" font-size="6" fill="currentColor">K</text>
  <rect x="12" y="45" width="10" height="13" rx="1" stroke="currentColor" stroke-width="0.8" fill="rgba(255,255,255,0.1)"/>
  <text x="17" y="54" text-anchor="middle" font-family="Arial" font-weight="bold" font-size="5" fill="currentColor">Ca</text>
  <rect x="23" y="45" width="10" height="13" rx="1" stroke="currentColor" stroke-width="0.8" fill="rgba(255,255,255,0.1)"/>
  <text x="28" y="54" text-anchor="middle" font-family="Arial" font-weight="bold" font-size="5" fill="currentColor">Sc</text>
  <rect x="34" y="45" width="10" height="13" rx="1" stroke="currentColor" stroke-width="0.8" fill="rgba(255,255,255,0.1)"/>
  <text x="39" y="54" text-anchor="middle" font-family="Arial" font-weight="bold" font-size="5" fill="currentColor">Ti</text>
  <rect x="45" y="45" width="10" height="13" rx="1" stroke="currentColor" stroke-width="0.8" fill="rgba(255,255,255,0.1)"/>
  <text x="50" y="54" text-anchor="middle" font-family="Arial" font-weight="bold" font-size="6" fill="currentColor">V</text>
  <rect x="56" y="45" width="10" height="13" rx="1" stroke="currentColor" stroke-width="0.8" fill="rgba(255,255,255,0.1)"/>
  <text x="61" y="54" text-anchor="middle" font-family="Arial" font-weight="bold" font-size="5" fill="currentColor">Cr</text>
  <rect x="67" y="45" width="10" height="13" rx="1" stroke="currentColor" stroke-width="0.8" fill="rgba(255,255,255,0.1)"/>
  <text x="72" y="54" text-anchor="middle" font-family="Arial" font-weight="bold" font-size="5" fill="currentColor">Mn</text>
  <rect x="78" y="45" width="10" height="13" rx="1" stroke="currentColor" stroke-width="0.8" fill="rgba(255,255,255,0.1)"/>
  <text x="83" y="54" text-anchor="middle" font-family="Arial" font-weight="bold" font-size="5" fill="currentColor">Fe</text>
  <rect x="89" y="45" width="10" height="13" rx="1" stroke="currentColor" stroke-width="0.8" fill="rgba(255,255,255,0.1)"/>
  <text x="94" y="54" text-anchor="middle" font-family="Arial" font-weight="bold" font-size="5" fill="currentColor">Co</text>
  <rect x="100" y="45" width="10" height="13" rx="1" stroke="currentColor" stroke-width="0.8" fill="rgba(255,255,255,0.1)"/>
  <text x="105" y="54" text-anchor="middle" font-family="Arial" font-weight="bold" font-size="5" fill="currentColor">Ni</text>
  <rect x="111" y="45" width="10" height="13" rx="1" stroke="currentColor" stroke-width="0.8" fill="rgba(255,255,255,0.1)"/>
  <text x="116" y="54" text-anchor="middle" font-family="Arial" font-weight="bold" font-size="5" fill="currentColor">Cu</text>
  <rect x="122" y="45" width="10" height="13" rx="1" stroke="currentColor" stroke-width="0.8" fill="rgba(255,255,255,0.1)"/>
  <text x="127" y="54" text-anchor="middle" font-family="Arial" font-weight="bold" font-size="5" fill="currentColor">Zn</text>
  <rect x="133" y="45" width="10" height="13" rx="1" stroke="currentColor" stroke-width="0.8" fill="rgba(255,255,255,0.1)"/>
  <text x="138" y="54" text-anchor="middle" font-family="Arial" font-weight="bold" font-size="5" fill="currentColor">Ga</text>
  <rect x="144" y="45" width="10" height="13" rx="1" stroke="currentColor" stroke-width="0.8" fill="rgba(255,255,255,0.1)"/>
  <text x="149" y="54" text-anchor="middle" font-family="Arial" font-weight="bold" font-size="5" fill="currentColor">Ge</text>
  <rect x="155" y="45" width="10" height="13" rx="1" stroke="currentColor" stroke-width="0.8" fill="rgba(255,255,255,0.1)"/>
  <text x="160" y="54" text-anchor="middle" font-family="Arial" font-weight="bold" font-size="5" fill="currentColor">As</text>
  <rect x="166" y="45" width="10" height="13" rx="1" stroke="currentColor" stroke-width="0.8" fill="rgba(255,255,255,0.1)"/>
  <text x="171" y="54" text-anchor="middle" font-family="Arial" font-weight="bold" font-size="5" fill="currentColor">Se</text>
  <rect x="177" y="45" width="10" height="13" rx="1" stroke="currentColor" stroke-width="0.8" fill="rgba(255,255,255,0.1)"/>
  <text x="182" y="54" text-anchor="middle" font-family="Arial" font-weight="bold" font-size="5" fill="currentColor">Br</text>
  <rect x="188" y="45" width="10" height="13" rx="1" stroke="currentColor" stroke-width="0.8" fill="rgba(255,255,255,0.1)"/>
  <text x="193" y="54" text-anchor="middle" font-family="Arial" font-weight="bold" font-size="5" fill="currentColor">Kr</text>

  <!-- Row 5 hint: just outlines to show table continues -->
  <rect x="1" y="59" width="10" height="13" rx="1" stroke="currentColor" stroke-width="0.5" fill="none" opacity="0.3"/>
  <rect x="12" y="59" width="10" height="13" rx="1" stroke="currentColor" stroke-width="0.5" fill="none" opacity="0.3"/>
  <rect x="23" y="59" width="10" height="13" rx="1" stroke="currentColor" stroke-width="0.5" fill="none" opacity="0.3"/>
  <rect x="34" y="59" width="10" height="13" rx="1" stroke="currentColor" stroke-width="0.5" fill="none" opacity="0.3"/>
  <rect x="45" y="59" width="10" height="13" rx="1" stroke="currentColor" stroke-width="0.5" fill="none" opacity="0.3"/>
  <rect x="56" y="59" width="10" height="13" rx="1" stroke="currentColor" stroke-width="0.5" fill="none" opacity="0.3"/>
  <rect x="67" y="59" width="10" height="13" rx="1" stroke="currentColor" stroke-width="0.5" fill="none" opacity="0.3"/>
  <rect x="78" y="59" width="10" height="13" rx="1" stroke="currentColor" stroke-width="0.5" fill="none" opacity="0.3"/>
  <rect x="89" y="59" width="10" height="13" rx="1" stroke="currentColor" stroke-width="0.5" fill="none" opacity="0.3"/>
  <rect x="100" y="59" width="10" height="13" rx="1" stroke="currentColor" stroke-width="0.5" fill="none" opacity="0.3"/>
  <rect x="111" y="59" width="10" height="13" rx="1" stroke="currentColor" stroke-width="0.5" fill="none" opacity="0.3"/>
  <rect x="122" y="59" width="10" height="13" rx="1" stroke="currentColor" stroke-width="0.5" fill="none" opacity="0.3"/>
  <rect x="133" y="59" width="10" height="13" rx="1" stroke="currentColor" stroke-width="0.5" fill="none" opacity="0.3"/>
  <rect x="144" y="59" width="10" height="13" rx="1" stroke="currentColor" stroke-width="0.5" fill="none" opacity="0.3"/>
  <rect x="155" y="59" width="10" height="13" rx="1" stroke="currentColor" stroke-width="0.5" fill="none" opacity="0.3"/>
  <rect x="166" y="59" width="10" height="13" rx="1" stroke="currentColor" stroke-width="0.5" fill="none" opacity="0.3"/>
  <rect x="177" y="59" width="10" height="13" rx="1" stroke="currentColor" stroke-width="0.5" fill="none" opacity="0.3"/>
  <rect x="188" y="59" width="10" height="13" rx="1" stroke="currentColor" stroke-width="0.5" fill="none" opacity="0.3"/>
</svg>
