<svg xmlns="http://www.w3.org/2000/svg" viewBox="0 0 200 140" fill="none">
  <rect x="5" y="5" width="22" height="26" rx="2" stroke="currentColor" stroke-width="1.5" fill="rgba(255,255,255,0.1)"/>
  <text x="16" y="22" text-anchor="middle" font-family="Arial" font-weight="bold" font-size="12" fill="currentColor">H</text>
  <rect x="173" y="5" width="22" height="26" rx="2" stroke="currentColor" stroke-width="1.5" fill="rgba(255,255,255,0.1)"/>
  <text x="184" y="22" text-anchor="middle" font-family="Arial" font-weight="bold" font-size="10" fill="currentColor">He</text>
  <rect x="5" y="37" width="22" height="26" rx="2" stroke="currentColor" stroke-width="1.5" fill="rgba(255,255,255,0.1)"/>
  <text x="16" y="54" text-anchor="middle" font-family="Arial" font-weight="bold" font-size="10" fill="currentColor">Li</text>
  <rect x="29" y="37" width="22" height="26" rx="2" stroke="currentColor" stroke-width="1.5" fill="rgba(255,255,255,0.1)"/>
  <text x="40" y="54" text-anchor="middle" font-family="Arial" font-weight="bold" font-size="10" fill="currentColor">Be</text>
  <rect x="101" y="37" width="22" height="26" rx="2" stroke="currentColor" stroke-width="1.5" fill="rgba(255,255,255,0.1)"/>
  <text x="112" y="54" text-anchor="middle" font-family="Arial" font-weight="bold" font-size="12" fill="currentColor">B</text>
  <rect x="125" y="37" width="22" height="26" rx="2" stroke="currentColor" stroke-width="1.5" fill="rgba(255,255,255,0.1)"/>
  <text x="136" y="54" text-anchor="middle" font-family="Arial" font-weight="bold" font-size="12" fill="currentColor">C</text>
  <rect x="149" y="37" width="22" height="26" rx="2" stroke="currentColor" stroke-width="1.5" fill="rgba(255,255,255,0.1)"/>
  <text x="160" y="54" text-anchor="middle" font-family="Arial" font-weight="bold" font-size="12" fill="currentColor">N</text>
  <rect x="173" y="37" width="22" height="26" rx="2" stroke="currentColor" stroke-width="1.5" fill="rgba(255,255,255,0.1)"/>
  <text x="184" y="54" text-anchor="middle" font-family="Arial" font-weight="bold" font-size="12" fill="currentColor">O</text>
  <rect x="5" y="69" width="22" height="26" rx="2" stroke="currentColor" stroke-width="1.5" fill="rgba(255,255,255,0.1)"/>
  <text x="16" y="86" text-anchor="middle" font-family="Arial" font-weight="bold" font-size="10" fill="currentColor">Na</text>
  <rect x="29" y="69" width="22" height="26" rx="2" stroke="currentColor" stroke-width="1.5" fill="rgba(255,255,255,0.1)"/>
  <text x="40" y="86" text-anchor="middle" font-family="Arial" font-weight="bold" font-size="10" fill="currentColor">Mg</text>
  <rect x="101" y="69" width="22" height="26" rx="2" stroke="currentColor" stroke-width="1.5" fill="rgba(255,255,255,0.1)"/>
  <text x="112" y="86" text-anchor="middle" font-family="Arial" font-weight="bold" font-size="10" fill="currentColor">Al</text>
  <rect x="125" y="69" width="22" height="26" rx="2" stroke="currentColor" stroke-width="1.5" fill="rgba(255,255,255,0.1)"/>
  <text x="136" y="86" text-anchor="middle" font-family="Arial" font-weight="bold" font-size="10" fill="currentColor">Si</text>
  <rect x="149" y="69" width="22" height="26" rx="2" stroke="currentColor" stroke-width="1.5" fill="rgba(255,255,255,0.1)"/>
  <text x="160" y="86" text-anchor="middle" font-family="Arial" font-weight="bold" font-size="12" fill="currentColor">P</text>
  <rect x="173" y="69" width="22" height="26" rx="2" stroke="currentColor" stroke-width="1.5" fill="rgba(255,255,255,0.1)"/>
  <text x="184" y="86" text-anchor="middle" font-family="Arial" font-weight="bold" font-size="12" fill="currentColor">S</text>
  <rect x="5" y="101" width="22" height="26" rx="2" stroke="currentColor" stroke-width="1.5" fill="rgba(255,255,255,0.1)"/>
  <text x="16" y="118" text-anchor="middle" font-family="Arial" font-weight="bold" font-size="12" fill="currentColor">K</text>
  <rect x="29" y="101" width="22" height="26" rx="2" stroke="currentColor" stroke-width="1.5" fill="rgba(255,255,255,0.1)"/>
  <text x="40" y="118" text-anchor="middle" font-family="Arial" font-weight="bold" font-size="10" fill="currentColor">Ca</text>
  <rect x="53" y="101" width="22" height="26" rx="2" stroke="currentColor" stroke-width="1.5" fill="rgba(255,255,255,0.1)"/>
  <text x="64" y="118" text-anchor="middle" font-family="Arial" font-weight="bold" font-size="10" fill="currentColor">Sc</text>
  <rect x="77" y="101" width="22" height="26" rx="2" stroke="currentColor" stroke-width="1.5" fill="rgba(255,255,255,0.1)"/>
  <text x="88" y="118" text-anchor="middle" font-family="Arial" font-weight="bold" font-size="10" fill="currentColor">Ti</text>
  <rect x="101" y="101" width="22" height="26" rx="2" stroke="currentColor" stroke-width="1.5" fill="rgba(255,255,255,0.1)"/>
  <text x="112" y="118" text-anchor="middle" font-family="Arial" font-weight="bold" font-size="12" fill="currentColor">V</text>
  <rect x="125" y="101" width="22" height="26" rx="2" stroke="currentColor" stroke-width="1.5" fill="rgba(255,255,255,0.1)"/>
  <text x="136" y="118" text-anchor="middle" font-family="Arial" font-weight="bold" font-size="10" fill="currentColor">Cr</text>
  <rect x="149" y="101" width="22" height="26" rx="2" stroke="currentColor" stroke-width="1.5" fill="rgba(255,255,255,0.1)"/>
  <text x="160" y="118" text-anchor="middle" font-family="Arial" font-weight="bold" font-size="10" fill="currentColor">Mn</text>
  <rect x="173" y="101" width="22" height="26" rx="2" stroke="currentColor" stroke-width="1.5" fill="rgba(255,255,255,0.1)"/>
  <text x="184" y="118" text-anchor="middle" font-family="Arial" font-weight="bold" font-size="10" fill="currentColor">Fe</text>
</svg>
